<?xml version="1.0" encoding="utf-8"?>
<!-- Generator: Adobe Illustrator 26.0.0, SVG Export Plug-In . SVG Version: 6.00 Build 0)  -->
<svg version="1.1" id="图层_1" xmlns="http://www.w3.org/2000/svg" xmlns:xlink="http://www.w3.org/1999/xlink" x="0px" y="0px"
	 viewBox="0 0 644 1024" style="enable-background:new 0 0 644 1024;" xml:space="preserve">
<style type="text/css">
	.st0{enable-background:new    ;}
</style>
<g class="st0">
	<path d="M439.3,834.6c-44,55.3-101.4,81.9-165.9,81.9c-130,0-224.3-110.6-224.3-273.4c0-176.1,105.5-285.7,238.6-285.7
		c54.3,0,105.5,22.5,152.6,77.8V140.3l-93.2-5.1v-27.6L510,76.8l14.3,9.2l-3.1,155.6v624.6l96.3,6.1v28.7l-175.1,10.2L439.3,834.6z
		 M438.3,466.9c-44-44-81.9-62.5-128-62.5c-93.2,0-171,68.6-171,236.5c0,155.6,70.7,226.3,163.8,226.3c52.2,0,92.2-18.4,135.2-65.5
		V466.9z"/>
</g>
</svg>
