<?xml version="1.0" encoding="utf-8"?>
<!-- Generator: Adobe Illustrator 26.0.0, SVG Export Plug-In . SVG Version: 6.00 Build 0)  -->
<svg version="1.1" id="图层_1" xmlns="http://www.w3.org/2000/svg" xmlns:xlink="http://www.w3.org/1999/xlink" x="0px" y="0px"
	 viewBox="0 0 560 1024" style="enable-background:new 0 0 560 1024;" xml:space="preserve">
<style type="text/css">
	.st0{enable-background:new    ;}
</style>
<g class="st0">
	<path d="M49.2,638c0-172,116.7-280.6,252.9-280.6c133.1,0,212,92.2,212,213c0,24.6-2,45.1-7.2,61.4H138.2
		c2,162.8,81.9,233.5,194.6,233.5c72.7,0,124.9-25.6,166.9-74.8l16.4,14.3C471,874.5,402.4,916.5,310.3,916.5
		C158.7,916.5,49.2,823.3,49.2,638z M386,600.1c35.8,0,46.1-18.4,46.1-59.4c0-87-49.2-150.5-132.1-150.5
		c-85,0-153.6,76.8-160.8,209.9H386z"/>
</g>
</svg>
