<?xml version="1.0" encoding="utf-8"?>
<!-- Generator: Adobe Illustrator 26.0.0, SVG Export Plug-In . SVG Version: 6.00 Build 0)  -->
<svg version="1.1" id="图层_1" xmlns="http://www.w3.org/2000/svg" xmlns:xlink="http://www.w3.org/1999/xlink" x="0px" y="0px"
	 viewBox="0 0 465 1024" style="enable-background:new 0 0 465 1024;" xml:space="preserve">
<style type="text/css">
	.st0{enable-background:new    ;}
</style>
<g class="st0">
	<path d="M36.9,901.1v-28.7l92.2-9.2l2-196.6v-256H33.8v-30.7l97.3-8.2c7.2-126,35.8-198.7,90.1-248.8c42-39.9,91.1-57.3,141.3-57.3
		c49.2,0,93.2,18.4,103.4,53.2c-1,24.6-20.5,42-51.2,42c-26.6,0-48.1-13.3-76.8-44l-19.5-20.5c-25.6,10.2-47.1,29.7-62.5,53.2
		c-31.7,48.1-44,106.5-41,223.2h158.7v37.9H216.1v256l2,196.6l104.4,9.2v28.7H128H36.9z"/>
</g>
</svg>
