<?xml version="1.0" encoding="utf-8"?>
<!-- Generator: Adobe Illustrator 26.0.0, SVG Export Plug-In . SVG Version: 6.00 Build 0)  -->
<svg version="1.1" id="图层_1" xmlns="http://www.w3.org/2000/svg" xmlns:xlink="http://www.w3.org/1999/xlink" x="0px" y="0px"
	 viewBox="0 0 580 1024" style="enable-background:new 0 0 580 1024;" xml:space="preserve">
<style type="text/css">
	.st0{enable-background:new    ;}
</style>
<g class="st0">
	<path d="M173.1,705.5c-25.6,28.7-37.9,48.1-37.9,76.8c0,34.8,22.5,59.4,78.8,59.4h149.5c123.9,0,182.3,50.2,182.3,136.2
		c0,95.2-101.4,189.4-290.8,189.4c-153.6,0-213-56.3-213-135.2c0-56.3,35.8-96.3,105.5-129c-47.1-14.3-69.6-45.1-69.6-88.1
		c0-39.9,21.5-75.8,74.8-118.8c-54.3-30.7-85-86-85-155.6c0-110.6,76.8-183.3,200.7-183.3c57.3,0,105.5,16.4,137.2,44l128-39.9
		l17.4,11.3V428l-120.8-4.1c24.6,30.7,37.9,70.7,37.9,116.7c0,109.6-77.8,182.3-200.7,182.3C231.4,722.9,199.7,716.8,173.1,705.5z
		 M106.5,1017.9c0,73.7,54.3,112.6,150.5,112.6c142.3,0,216.1-56.3,216.1-130c0-46.1-27.6-85-113.7-85h-126c-26.6,0-46.1-1-65.5-4.1
		C126,945.2,106.5,972.8,106.5,1017.9z M390.1,539.7c0-92.2-49.2-151.6-121.9-151.6c-73.7,0-121.9,60.4-121.9,152.6
		c0,91.1,46.1,151.6,120.8,151.6C341,692.2,390.1,630.8,390.1,539.7z"/>
</g>
</svg>
