<?xml version="1.0" encoding="utf-8"?>
<!-- Generator: Adobe Illustrator 26.0.0, SVG Export Plug-In . SVG Version: 6.00 Build 0)  -->
<svg version="1.1" id="图层_1" xmlns="http://www.w3.org/2000/svg" xmlns:xlink="http://www.w3.org/1999/xlink" x="0px" y="0px"
	 viewBox="0 0 678 1024" style="enable-background:new 0 0 678 1024;" xml:space="preserve">
<style type="text/css">
	.st0{enable-background:new    ;}
</style>
<g class="st0">
	<path d="M393.2,901.1v-28.7l84-8.2l2-197.6V548.9c0-101.4-35.8-136.2-95.2-136.2c-44,0-101.4,20.5-169,88.1v165.9l2,197.6l76.8,8.2
		v28.7H43v-28.7l86-8.2l2-197.6V139.3L41,135.2v-27.6l159.7-30.7l15.4,9.2L213,244.7V470c68.6-78.8,137.2-112.6,206.8-112.6
		c89.1,0,143.4,54.3,143.4,194.6v114.7c0,57.3,1,141.3,2,197.6l78.8,8.2v28.7H476.2H393.2z"/>
</g>
</svg>
