<?xml version="1.0" encoding="utf-8"?>
<!-- Generator: Adobe Illustrator 26.0.0, SVG Export Plug-In . SVG Version: 6.00 Build 0)  -->
<svg version="1.1" id="图层_1" xmlns="http://www.w3.org/2000/svg" xmlns:xlink="http://www.w3.org/1999/xlink" x="0px" y="0px"
	 viewBox="0 0 340 1024" style="enable-background:new 0 0 340 1024;" xml:space="preserve">
<style type="text/css">
	.st0{enable-background:new    ;}
</style>
<g class="st0">
	<path d="M44,901.1v-28.7l86-8.2c2-57.3,3.1-142.3,3.1-197.6v-61.4c0-68.6-2-122.9-4.1-174.1L37.9,427v-26.6l169-39.9l12.3,8.2
		L216.1,512v154.6c0,55.3,1,140.3,2,197.6l78.8,8.2v28.7H129H44z M107.5,173.1c0-33.8,26.6-58.4,59.4-58.4
		c31.7,0,59.4,24.6,59.4,58.4s-27.6,57.3-59.4,57.3C134.1,230.4,107.5,206.9,107.5,173.1z"/>
</g>
</svg>
