<?xml version="1.0" encoding="utf-8"?>
<!-- Generator: Adobe Illustrator 26.0.0, SVG Export Plug-In . SVG Version: 6.00 Build 0)  -->
<svg version="1.1" id="图层_1" xmlns="http://www.w3.org/2000/svg" xmlns:xlink="http://www.w3.org/1999/xlink" x="0px" y="0px"
	 viewBox="0 0 318 1024" style="enable-background:new 0 0 318 1024;" xml:space="preserve">
<style type="text/css">
	.st0{enable-background:new    ;}
</style>
<g class="st0">
	<path d="M-80.9,1131.5c6.1-27.6,26.6-42,56.3-42c24.6,0,45.1,9.2,68.6,31.7l20.5,19.5c14.3-10.2,26.6-22.5,35.8-41
		c26.6-52.2,27.6-157.7,27.6-297V606.2c0-68.6-1-123.9-3.1-175.1L34.8,427v-26.6l164.9-39.9l15.4,9.2L210.9,512v282.6
		c0,186.4-8.2,266.2-70.7,327.7c-39.9,39.9-79.9,56.3-132.1,56.3C-47.1,1178.6-75.8,1157.1-80.9,1131.5z M103.4,173.1
		c0-33.8,27.6-58.4,60.4-58.4c31.7,0,58.4,24.6,58.4,58.4s-26.6,57.3-58.4,57.3C131.1,230.4,103.4,206.9,103.4,173.1z"/>
</g>
</svg>
