<?xml version="1.0" encoding="utf-8"?>
<!-- Generator: Adobe Illustrator 26.0.0, SVG Export Plug-In . SVG Version: 6.00 Build 0)  -->
<svg version="1.1" id="图层_1" xmlns="http://www.w3.org/2000/svg" xmlns:xlink="http://www.w3.org/1999/xlink" x="0px" y="0px"
	 viewBox="0 0 676 1024" style="enable-background:new 0 0 676 1024;" xml:space="preserve">
<style type="text/css">
	.st0{enable-background:new    ;}
</style>
<g class="st0">
	<path d="M391.2,901.1v-28.7l85-9.2l2-196.6V548.9c0-101.4-34.8-136.2-94.2-136.2c-43,0-102.4,20.5-170,89.1v164.9l2,197.6l77.8,8.2
		v28.7H43v-28.7l85-8.2l2-197.6v-61.4c0-70.7-1-121.9-3.1-173.1L36.9,428v-26.6l157.7-41l13.3,8.2L213,469
		c69.6-78.8,138.2-111.6,205.8-111.6c89.1,0,142.3,55.3,142.3,193.5v115.7l2,197.6l78.8,8.2v28.7H475.1H391.2z"/>
</g>
</svg>
