<?xml version="1.0" encoding="utf-8"?>
<!-- Generator: Adobe Illustrator 26.0.0, SVG Export Plug-In . SVG Version: 6.00 Build 0)  -->
<svg version="1.1" id="图层_1" xmlns="http://www.w3.org/2000/svg" xmlns:xlink="http://www.w3.org/1999/xlink" x="0px" y="0px"
	 viewBox="0 0 653 1024" style="enable-background:new 0 0 653 1024;" xml:space="preserve">
<style type="text/css">
	.st0{enable-background:new    ;}
</style>
<g class="st0">
	<path d="M214,841.7v87l2,201.7l99.3,8.2v28.7H42v-28.7l87-8.2l2-201.7V607.2c0-69.6-1-123.9-3.1-175.1L36.9,428v-26.6l157.7-41
		l13.3,8.2l5.1,75.8c51.2-61.4,113.7-87,176.1-87c124.9,0,214,106.5,214,274.4c0,175.1-95.2,284.7-227.3,284.7
		C320.5,916.5,263.2,898.1,214,841.7z M216.1,811c44,43,85,56.3,135.2,56.3c89.1,0,161.8-63.5,161.8-233.5
		c0-155.6-63.5-229.4-156.7-229.4c-45.1,0-89.1,15.4-140.3,66.6V811z"/>
</g>
</svg>
