<?xml version="1.0" encoding="utf-8"?>
<!-- Generator: Adobe Illustrator 26.0.0, SVG Export Plug-In . SVG Version: 6.00 Build 0)  -->
<svg version="1.1" id="图层_1" xmlns="http://www.w3.org/2000/svg" xmlns:xlink="http://www.w3.org/1999/xlink" x="0px" y="0px"
	 viewBox="0 0 621 1024" style="enable-background:new 0 0 621 1024;" xml:space="preserve">
<style type="text/css">
	.st0{enable-background:new    ;}
</style>
<g class="st0">
	<path d="M340,1167.4v-28.7l99.3-8.2c1-65.5,2-132.1,2-197.6V831.5c-48.1,59.4-105.5,85-170,85c-129,0-222.2-107.5-222.2-272.4
		c0-176.1,104.4-286.7,239.6-286.7c54.3,0,111.6,23.6,157.7,82.9l62.5-76.8l17.4,6.1l-4.1,151.6v411.6c0,65.5,1,132.1,3.1,197.6
		l87,8.2v28.7H438.3H340z M439.3,466.9c-43-44-82.9-62.5-131.1-62.5c-94.2,0-169,71.7-169,238.6c0,155.6,70.7,224.3,163.8,224.3
		c53.2,0,92.2-18.4,136.2-65.5V466.9z"/>
</g>
</svg>
