<?xml version="1.0" encoding="utf-8"?>
<!-- Generator: Adobe Illustrator 26.0.0, SVG Export Plug-In . SVG Version: 6.00 Build 0)  -->
<svg version="1.1" id="图层_1" xmlns="http://www.w3.org/2000/svg" xmlns:xlink="http://www.w3.org/1999/xlink" x="0px" y="0px"
	 viewBox="0 0 473 1024" style="enable-background:new 0 0 473 1024;" xml:space="preserve">
<style type="text/css">
	.st0{enable-background:new    ;}
</style>
<g class="st0">
	<path d="M42,901.1v-28.7l86-9.2l2-196.6v-61.4c0-70.7-1-121.9-3.1-173.1L36.9,428v-26.6l157.7-41l13.3,8.2L214,510
		c33.8-93.2,102.4-152.6,171-152.6c38.9,0,71.7,16.4,81.9,46.1c-1,35.8-17.4,58.4-53.2,58.4c-26.6,0-44-14.3-67.6-38.9l-9.2-9.2
		c-54.3,25.6-92.2,74.8-122.9,157.7v95.2l2,195.6l97.3,10.2v28.7H127H42z"/>
</g>
</svg>
