<?xml version="1.0" encoding="utf-8"?>
<!-- Generator: Adobe Illustrator 26.0.0, SVG Export Plug-In . SVG Version: 6.00 Build 0)  -->
<svg version="1.1" id="图层_1" xmlns="http://www.w3.org/2000/svg" xmlns:xlink="http://www.w3.org/1999/xlink" x="0px" y="0px"
	 viewBox="0 0 484 1024" style="enable-background:new 0 0 484 1024;" xml:space="preserve">
<style type="text/css">
	.st0{enable-background:new    ;}
</style>
<g class="st0">
	<path d="M55.3,875.5V753.7h45.1l20.5,109.6c28.7,13.3,60.4,20.5,103.4,20.5c90.1,0,136.2-39.9,136.2-98.3
		c0-50.2-25.6-78.8-108.5-105.5l-53.2-19.5C115.7,630.8,63.5,586.8,63.5,510c0-86,68.6-152.6,191.5-152.6
		c61.4,0,105.5,15.4,156.7,46.1L408.6,513h-41l-20.5-97.3c-30.7-17.4-59.4-24.6-92.2-24.6c-77.8,0-117.8,37.9-117.8,92.2
		c0,49.2,29.7,76.8,104.4,102.4l52.2,18.4c103.4,35.8,143.4,81.9,143.4,153.6c0,89.1-71.7,158.7-210.9,158.7
		C160.8,916.5,110.6,902.1,55.3,875.5z"/>
</g>
</svg>
