<?xml version="1.0" encoding="utf-8"?>
<!-- Generator: Adobe Illustrator 26.0.0, SVG Export Plug-In . SVG Version: 6.00 Build 0)  -->
<svg version="1.1" id="图层_1" xmlns="http://www.w3.org/2000/svg" xmlns:xlink="http://www.w3.org/1999/xlink" x="0px" y="0px"
	 viewBox="0 0 566 1024" style="enable-background:new 0 0 566 1024;" xml:space="preserve">
<style type="text/css">
	.st0{enable-background:new    ;}
</style>
<g class="st0">
	<path d="M358.4,372.7h206.8v28.7l-69.6,7.2L293.9,949.3c-61.4,162.8-129,229.4-212,229.4c-45.1,0-88.1-20.5-92.2-55.3
		c5.1-28.7,30.7-42,59.4-42c26.6,0,50.2,15.4,73.7,37.9l12.3,12.3c51.2-29.7,91.1-89.1,122.9-171l11.3-29.7L59.4,408.6l-67.6-7.2
		v-28.7h254v28.7l-93.2,9.2l154.6,418.8L383,620.5l72.7-210.9l-97.3-8.2V372.7z"/>
</g>
</svg>
