<?xml version="1.0" encoding="utf-8"?>
<!-- Generator: Adobe Illustrator 26.0.0, SVG Export Plug-In . SVG Version: 6.00 Build 0)  -->
<svg version="1.1" id="图层_1" xmlns="http://www.w3.org/2000/svg" xmlns:xlink="http://www.w3.org/1999/xlink" x="0px" y="0px"
	 viewBox="0 0 382 1024" style="enable-background:new 0 0 382 1024;" xml:space="preserve">
<style type="text/css">
	.st0{enable-background:new    ;}
</style>
<g class="st0">
	<path d="M44,576.5c102.4-12.3,136.2-51.2,136.2-106.5c0-58.4-54.3-138.2-54.3-226.3c0-90.1,59.4-139.3,183.3-139.3h41v32.8
		l-35.8,3.1c-90.1,7.2-118.8,35.8-118.8,104.4c0,82.9,36.9,155.6,36.9,213c0,66.6-29.7,118.8-124.9,134.1
		c95.2,14.3,124.9,67.6,124.9,133.1c0,58.4-36.9,131.1-36.9,214c0,67.6,28.7,97.3,118.8,104.4l35.8,2v32.8h-41
		c-123.9,0-183.3-48.1-183.3-138.2c0-87,54.3-169,54.3-226.3c0-56.3-33.8-95.2-136.2-106.5V576.5z"/>
</g>
</svg>
