<?xml version="1.0" encoding="utf-8"?>
<!-- Generator: Adobe Illustrator 26.0.0, SVG Export Plug-In . SVG Version: 6.00 Build 0)  -->
<svg version="1.1" id="图层_1" xmlns="http://www.w3.org/2000/svg" xmlns:xlink="http://www.w3.org/1999/xlink" x="0px" y="0px"
	 viewBox="0 0 382 1024" style="enable-background:new 0 0 382 1024;" xml:space="preserve">
<style type="text/css">
	.st0{enable-background:new    ;}
</style>
<g class="st0">
	<path d="M338.9,607.2c-102.4,11.3-136.2,50.2-136.2,106.5C202.8,771.1,257,853,257,940c0,90.1-59.4,138.2-183.3,138.2h-41v-32.8
		l36.9-2c90.1-7.2,117.8-36.9,117.8-104.4c0-82.9-36.9-155.6-36.9-214c0-65.5,30.7-118.8,124.9-134.1
		c-94.2-14.3-124.9-66.6-124.9-133.1c0-57.3,36.9-130,36.9-213c0-68.6-27.6-97.3-117.8-104.4l-36.9-3.1v-32.8h41
		c123.9,0,183.3,49.2,183.3,139.3c0,88.1-54.3,167.9-54.3,226.3c0,55.3,33.8,94.2,136.2,106.5V607.2z"/>
</g>
</svg>
