<?xml version="1.0" encoding="utf-8"?>
<!-- Generator: Adobe Illustrator 26.0.0, SVG Export Plug-In . SVG Version: 6.00 Build 0)  -->
<svg version="1.1" id="图层_1" xmlns="http://www.w3.org/2000/svg" xmlns:xlink="http://www.w3.org/1999/xlink" x="0px" y="0px"
	 viewBox="0 0 840 1024" style="enable-background:new 0 0 840 1024;" xml:space="preserve">
<style type="text/css">
	.st0{enable-background:new    ;}
</style>
<g class="st0">
	<path d="M32.8,527.4c0-242.7,177.2-389.1,388.1-389.1c209.9,0,386,146.4,386,389.1c0,240.6-176.1,390.1-386,390.1
		C209.9,917.5,32.8,768,32.8,527.4z M767,527.4C767,308.2,614.4,172,420.9,172C227.3,172,74.8,307.2,74.8,527.4
		c0,221.2,152.6,357.4,346.1,357.4C615.4,884.7,767,744.5,767,527.4z M218.1,527.4c0-143.4,96.3-234.5,221.2-234.5
		c52.2,0,86,11.3,127,33.8l3.1,103.4h-35.8l-17.4-93.2c-20.5-10.2-41-14.3-66.6-14.3c-95.2,0-163.8,75.8-163.8,203.8
		c0,128,69.6,201.7,161.8,201.7c23.6,0,48.1-3.1,72.7-13.3l16.4-94.2h37.9L570.4,724c-39.9,24.6-81.9,33.8-132.1,33.8
		C309.2,757.8,218.1,667.7,218.1,527.4z"/>
</g>
</svg>
