<?xml version="1.0" encoding="utf-8"?>
<!-- Generator: Adobe Illustrator 26.0.0, SVG Export Plug-In . SVG Version: 6.00 Build 0)  -->
<svg version="1.1" id="图层_1" xmlns="http://www.w3.org/2000/svg" xmlns:xlink="http://www.w3.org/1999/xlink" x="0px" y="0px"
	 viewBox="0 0 385 1024" style="enable-background:new 0 0 385 1024;" xml:space="preserve">
<style type="text/css">
	.st0{enable-background:new    ;}
</style>
<g class="st0">
	<path d="M146.4,133.1c0,41-12.3,109.6-17.4,162.8l-15.4,114.7H86L71.7,295.9c-6.1-53.2-18.4-122.9-18.4-162.8
		c0-38.9,17.4-56.3,47.1-56.3C129,76.8,146.4,94.2,146.4,133.1z M331.8,133.1c0,41-12.3,109.6-17.4,162.8L299,410.6h-27.6L256,295.9
		c-6.1-53.2-18.4-122.9-18.4-162.8c0-38.9,17.4-56.3,48.1-56.3C314.4,76.8,331.8,94.2,331.8,133.1z"/>
</g>
</svg>
