<?xml version="1.0" encoding="utf-8"?>
<!-- Generator: Adobe Illustrator 26.0.0, SVG Export Plug-In . SVG Version: 6.00 Build 0)  -->
<svg version="1.1" id="图层_1" xmlns="http://www.w3.org/2000/svg" xmlns:xlink="http://www.w3.org/1999/xlink" x="0px" y="0px"
	 viewBox="0 0 563 1024" style="enable-background:new 0 0 563 1024;" xml:space="preserve">
<style type="text/css">
	.st0{enable-background:new    ;}
</style>
<g class="st0">
	<path d="M271.4,916.5c-123.9-1-198.7-60.4-214-154.6c7.2-23.6,22.5-33.8,42-33.8c24.6,0,43,11.3,49.2,47.1l19.5,87
		c30.7,14.3,62.5,20.5,103.4,21.5V572.4l-20.5-8.2c-112.6-46.1-171-107.5-171-208.9c0-109.6,80.9-179.2,193.5-187.4V63.5h35.8v103.4
		c102.4,4.1,178.2,61.4,191.5,154.6c-3.1,22.5-20.5,33.8-39.9,33.8c-22.5,0-43-11.3-53.2-52.2l-20.5-87
		c-25.6-11.3-50.2-14.3-77.8-15.4v297l7.2,3.1c150.5,59.4,190.5,130,190.5,220.2c0,110.6-84,183.3-199.7,194.6v113.7h-35.8V916.5z
		 M273.4,202.8c-73.7,9.2-123.9,57.3-123.9,134.1c0,69.6,39.9,112.6,123.9,147.5V202.8z M307.2,881.7c77.8-10.2,127-62.5,127-140.3
		c0-70.7-28.7-109.6-127-153.6V881.7z"/>
</g>
</svg>
