<?xml version="1.0" encoding="utf-8"?>
<!-- Generator: Adobe Illustrator 26.0.0, SVG Export Plug-In . SVG Version: 6.00 Build 0)  -->
<svg version="1.1" id="图层_1" xmlns="http://www.w3.org/2000/svg" xmlns:xlink="http://www.w3.org/1999/xlink" x="0px" y="0px"
	 viewBox="0 0 945 1024" style="enable-background:new 0 0 945 1024;" xml:space="preserve">
<style type="text/css">
	.st0{enable-background:new    ;}
</style>
<g class="st0">
	<path d="M46.1,374.8c0-162.8,72.7-229.4,151.6-229.4c77.8,0,150.5,66.6,150.5,229.4c0,160.8-72.7,228.4-150.5,228.4
		C118.8,603.1,46.1,535.6,46.1,374.8z M282.6,374.8c0-158.7-41-202.8-85-202.8s-85,43-85,202.8c0,158.7,41,202.8,85,202.8
		S282.6,533.5,282.6,374.8z M198.7,911.4l520.2-755.7l26.6,19.5L225.3,929.8L198.7,911.4z M597,682c0-161.8,72.7-228.4,151.6-228.4
		c77.8,0,150.5,66.6,150.5,228.4c0,162.8-72.7,229.4-150.5,229.4C669.7,911.4,597,844.8,597,682z M834.6,682
		c0-157.7-42-201.7-86-201.7s-86,44-86,201.7c0,159.7,42,202.8,86,202.8S834.6,841.7,834.6,682z"/>
</g>
</svg>
