<?xml version="1.0" encoding="utf-8"?>
<!-- Generator: Adobe Illustrator 26.0.0, SVG Export Plug-In . SVG Version: 6.00 Build 0)  -->
<svg version="1.1" id="图层_1" xmlns="http://www.w3.org/2000/svg" xmlns:xlink="http://www.w3.org/1999/xlink" x="0px" y="0px"
	 viewBox="0 0 797 1024" style="enable-background:new 0 0 797 1024;" xml:space="preserve">
<style type="text/css">
	.st0{enable-background:new    ;}
</style>
<g class="st0">
	<path d="M557.1,869.4l-56.3-61.4c-51.2,61.4-123.9,108.5-229.4,108.5C130,916.5,43,824.3,43,714.8c0-95.2,54.3-167.9,176.1-228.4
		l-19.5-22.5C149.5,405.5,129,354.3,129,299c0-98.3,75.8-157.7,177.2-157.7c106.5,0,163.8,59.4,163.8,139.3
		c0,82.9-61.4,138.2-166.9,192.5l91.1,102.4l142.3,152.6c49.2-76.8,74.8-150.5,92.2-259.1l-94.2-10.2v-28.7h221.2v28.7L673.8,469
		C649.2,587.8,619.5,660.5,555,747.5l111.6,117.8l89.1,9.2l-1,27.6c-29.7,6.1-53.2,9.2-78.8,9.2
		C623.6,911.4,588.8,901.1,557.1,869.4z M345.1,633.9l-110.6-130c-79.9,55.3-113.7,117.8-113.7,185.3c0,93.2,69.6,173.1,180.2,173.1
		c73.7,0,132.1-24.6,181.2-74.8L345.1,633.9z M406.5,279.6c0-65.5-38.9-107.5-101.4-107.5c-59.4,0-109.6,45.1-109.6,109.6
		c0,41,9.2,74.8,53.2,129l37.9,44C359.4,401.4,406.5,352.3,406.5,279.6z"/>
</g>
</svg>
