<?xml version="1.0" encoding="utf-8"?>
<!-- Generator: Adobe Illustrator 26.0.0, SVG Export Plug-In . SVG Version: 6.00 Build 0)  -->
<svg version="1.1" id="图层_1" xmlns="http://www.w3.org/2000/svg" xmlns:xlink="http://www.w3.org/1999/xlink" x="0px" y="0px"
	 viewBox="0 0 489 1024" style="enable-background:new 0 0 489 1024;" xml:space="preserve">
<style type="text/css">
	.st0{enable-background:new    ;}
</style>
<g class="st0">
	<path d="M225.3,224.3c-9.2-55.3-14.3-97.3-14.3-119.8c0-23.6,12.3-37.9,33.8-37.9c22.5,0,36.9,14.3,36.9,37.9s-9.2,66.6-16.4,119.8
		L254,286.7l56.3-29.7c50.2-25.6,87-44,108.5-51.2c23.6-7.2,42,2,49.2,21.5c5.1,22.5-4.1,38.9-26.6,46.1
		c-21.5,8.2-64.5,13.3-118.8,21.5l-62.5,9.2l46.1,45.1c38.9,37.9,68.6,69.6,81.9,87c13.3,19.5,11.3,38.9-6.1,52.2
		c-17.4,13.3-37.9,10.2-52.2-10.2c-12.3-18.4-30.7-57.3-56.3-106.5l-27.6-56.3l-28.7,57.3c-24.6,49.2-44,87-57.3,105.5
		c-14.3,19.5-34.8,23.6-51.2,10.2c-18.4-13.3-20.5-32.8-6.1-52.2c12.3-18.4,44-49.2,84-87l44-44l-63.5-10.2
		c-54.3-8.2-96.3-14.3-117.8-22.5c-22.5-6.1-32.8-23.6-25.6-45.1c6.1-20.5,24.6-28.7,48.1-21.5c20.5,7.2,59.4,27.6,108.5,53.2
		l55.3,27.6L225.3,224.3z"/>
</g>
</svg>
