<?xml version="1.0" encoding="utf-8"?>
<!-- Generator: Adobe Illustrator 26.0.0, SVG Export Plug-In . SVG Version: 6.00 Build 0)  -->
<svg version="1.1" id="图层_1" xmlns="http://www.w3.org/2000/svg" xmlns:xlink="http://www.w3.org/1999/xlink" x="0px" y="0px"
	 viewBox="0 0 563 1024" style="enable-background:new 0 0 563 1024;" xml:space="preserve">
<style type="text/css">
	.st0{enable-background:new    ;}
</style>
<g class="st0">
	<path d="M55.3,845.8c68.6-73.7,136.2-150.5,185.3-204.8c105.5-115.7,154.6-198.7,154.6-288.8c0-98.3-54.3-154.6-145.4-154.6
		c-25.6,0-50.2,5.1-77.8,16.4l-24.6,88.1c-9.2,41-25.6,53.2-50.2,53.2c-19.5,0-34.8-11.3-41-31.7C72.7,220.2,170,166.9,275.5,166.9
		c137.2,0,207.9,71.7,207.9,186.4c0,93.2-57.3,171-217.1,320.5L110.6,829.4H514v71.7H55.3V845.8z"/>
</g>
</svg>
