<?xml version="1.0" encoding="utf-8"?>
<!-- Generator: Adobe Illustrator 26.0.0, SVG Export Plug-In . SVG Version: 6.00 Build 0)  -->
<svg version="1.1" id="图层_1" xmlns="http://www.w3.org/2000/svg" xmlns:xlink="http://www.w3.org/1999/xlink" x="0px" y="0px"
	 viewBox="0 0 563 1024" style="enable-background:new 0 0 563 1024;" xml:space="preserve">
<style type="text/css">
	.st0{enable-background:new    ;}
</style>
<g class="st0">
	<path d="M50.2,770.1c6.1-21.5,23.6-31.7,43-31.7c25.6,0,38.9,15.4,48.1,53.2l20.5,78.8c23.6,9.2,48.1,14.3,78.8,14.3
		c115.7,0,177.2-66.6,177.2-172c0-109.6-61.4-170-184.3-170h-47.1v-34.8h42c99.3,0,170-57.3,170-163.8
		c0-91.1-50.2-146.4-140.3-146.4c-25.6,0-49.2,4.1-73.7,13.3l-21.5,77.8c-7.2,32.8-22.5,45.1-48.1,45.1c-17.4,0-33.8-7.2-38.9-24.6
		c14.3-100.4,104.4-142.3,201.7-142.3c131.1,0,206.8,72.7,206.8,176.1c0,82.9-55.3,152.6-165.9,179.2
		c128,19.5,188.4,89.1,188.4,189.4c0,122.9-99.3,204.8-243.7,204.8C146.4,916.5,68.6,865.3,50.2,770.1z"/>
</g>
</svg>
