<?xml version="1.0" encoding="utf-8"?>
<!-- Generator: Adobe Illustrator 26.0.0, SVG Export Plug-In . SVG Version: 6.00 Build 0)  -->
<svg version="1.1" id="图层_1" xmlns="http://www.w3.org/2000/svg" xmlns:xlink="http://www.w3.org/1999/xlink" x="0px" y="0px"
	 viewBox="0 0 563 1024" style="enable-background:new 0 0 563 1024;" xml:space="preserve">
<style type="text/css">
	.st0{enable-background:new    ;}
</style>
<g class="st0">
	<path d="M43,770.1c6.1-19.5,22.5-29.7,42-29.7c25.6,0,38.9,12.3,47.1,50.2l23.6,78.8c24.6,10.2,49.2,15.4,81.9,15.4
		c116.7,0,184.3-70.7,184.3-190.5c0-127-68.6-184.3-171-184.3c-47.1,0-86,7.2-123.9,24.6l-24.6-9.2l22.5-344.1h366.6V254H158.7
		l-16.4,237.6c41-17.4,81.9-23.6,128-23.6C416.8,468,512,544.8,512,686.1c0,140.3-102.4,230.4-263.2,230.4
		C138.2,916.5,60.4,864.3,43,770.1z"/>
</g>
</svg>
