<?xml version="1.0" encoding="utf-8"?>
<!-- Generator: Adobe Illustrator 26.0.0, SVG Export Plug-In . SVG Version: 6.00 Build 0)  -->
<svg version="1.1" id="图层_1" xmlns="http://www.w3.org/2000/svg" xmlns:xlink="http://www.w3.org/1999/xlink" x="0px" y="0px"
	 viewBox="0 0 563 1024" style="enable-background:new 0 0 563 1024;" xml:space="preserve">
<style type="text/css">
	.st0{enable-background:new    ;}
</style>
<g class="st0">
	<path d="M49.2,621.6c0-225.3,167.9-422.9,438.3-454.7l6.1,22.5C286.7,234.5,169,369.7,142.3,540.7c47.1-53.2,105.5-79.9,174.1-79.9
		C440.3,460.8,513,549.9,513,682c0,138.2-97.3,234.5-226.3,234.5C136.2,916.5,49.2,803.8,49.2,621.6z M136.2,617.5
		c0,179.2,59.4,267.3,152.6,267.3c78.8,0,138.2-68.6,138.2-199.7c0-116.7-52.2-180.2-139.3-180.2c-53.2,0-100.4,18.4-149.5,69.6
		L136.2,617.5z"/>
</g>
</svg>
