<?xml version="1.0" encoding="utf-8"?>
<!-- Generator: Adobe Illustrator 26.0.0, SVG Export Plug-In . SVG Version: 6.00 Build 0)  -->
<svg version="1.1" id="图层_1" xmlns="http://www.w3.org/2000/svg" xmlns:xlink="http://www.w3.org/1999/xlink" x="0px" y="0px"
	 viewBox="0 0 563 1024" style="enable-background:new 0 0 563 1024;" xml:space="preserve">
<style type="text/css">
	.st0{enable-background:new    ;}
</style>
<g class="st0">
	<path d="M54.3,745.5c0-85,60.4-144.4,174.1-194.6C120.8,500.7,75.8,433.2,75.8,349.2c0-110.6,91.1-182.3,207.9-182.3
		c123.9,0,194.6,68.6,194.6,165.9c0,63.5-38.9,128-153.6,179.2C455.7,571.4,510,636.9,510,730.1c0,112.6-94.2,186.4-234.5,186.4
		C133.1,916.5,54.3,848.9,54.3,745.5z M129,740.4c0,85,57.3,144.4,152.6,144.4c93.2,0,150.5-58.4,150.5-137.2
		c0-70.7-45.1-124.9-179.2-185.3C164.9,615.4,129,666.6,129,740.4z M408.6,331.8c0-71.7-44-133.1-127-133.1
		c-69.6,0-132.1,50.2-132.1,128c0,65.5,33.8,120.8,149.5,174.1C377.9,447.5,408.6,401.4,408.6,331.8z"/>
</g>
</svg>
