<?xml version="1.0" encoding="utf-8"?>
<!-- Generator: Adobe Illustrator 26.0.0, SVG Export Plug-In . SVG Version: 6.00 Build 0)  -->
<svg version="1.1" id="图层_1" xmlns="http://www.w3.org/2000/svg" xmlns:xlink="http://www.w3.org/1999/xlink" x="0px" y="0px"
	 viewBox="0 0 563 1024" style="enable-background:new 0 0 563 1024;" xml:space="preserve">
<style type="text/css">
	.st0{enable-background:new    ;}
</style>
<g class="st0">
	<path d="M90.1,890.9C278.5,824.3,382,713.7,411.6,557.1c-37.9,35.8-88.1,56.3-151.6,56.3C135.2,613.4,43,533.5,43,397.3
		c0-139.3,104.4-230.4,233.5-230.4c145.4,0,231.4,103.4,231.4,289.8c0,218.1-144.4,392.2-410.6,460.8L90.1,890.9z M420.9,456.7
		c0-181.2-60.4-259.1-145.4-259.1c-79.9,0-145.4,67.6-145.4,192.5c0,115.7,65.5,184.3,158.7,184.3c48.1,0,90.1-17.4,128-51.2
		C419.8,501.8,420.9,479.2,420.9,456.7z"/>
</g>
</svg>
