<?xml version="1.0" encoding="utf-8"?>
<!-- Generator: Adobe Illustrator 26.0.0, SVG Export Plug-In . SVG Version: 6.00 Build 0)  -->
<svg version="1.1" id="图层_1" xmlns="http://www.w3.org/2000/svg" xmlns:xlink="http://www.w3.org/1999/xlink" x="0px" y="0px"
	 viewBox="0 0 334 1024" style="enable-background:new 0 0 334 1024;" xml:space="preserve">
<style type="text/css">
	.st0{enable-background:new    ;}
</style>
<g class="st0">
	<path d="M66.6,1053.7c64.5-32.8,99.3-63.5,113.7-121.9l-31.7-19.5c-28.7-16.4-42-36.9-42-60.4c0-32.8,22.5-58.4,59.4-58.4
		c19.5,0,37.9,5.1,54.3,21.5c7.2,19.5,9.2,36.9,9.2,61.4c0,98.3-58.4,166.9-151.6,204.8L66.6,1053.7z M104.4,448.5
		c0-35.8,25.6-63.5,62.5-63.5c35.8,0,63.5,27.6,63.5,63.5c0,32.8-27.6,62.5-63.5,62.5C130,511,104.4,481.3,104.4,448.5z"/>
</g>
</svg>
