<?xml version="1.0" encoding="utf-8"?>
<!-- Generator: Adobe Illustrator 26.0.0, SVG Export Plug-In . SVG Version: 6.00 Build 0)  -->
<svg version="1.1" id="图层_1" xmlns="http://www.w3.org/2000/svg" xmlns:xlink="http://www.w3.org/1999/xlink" x="0px" y="0px"
	 viewBox="0 0 442 1024" style="enable-background:new 0 0 442 1024;" xml:space="preserve">
<style type="text/css">
	.st0{enable-background:new    ;}
</style>
<g class="st0">
	<path d="M279.6,522.2l-42,19.5c-49.2,24.6-60.4,34.8-60.4,70.7l2,70.7h-27.6l-10.2-42c-9.2-36.9-15.4-55.3-15.4-74.8
		c0-35.8,22.5-58.4,82.9-87l50.2-20.5C320.5,426,341,398.3,340,348.2c0-34.8-11.3-62.5-33.8-89.1l-159.7-22.5
		C98.3,230.4,84,209.9,84,183.3c0-27.6,16.4-41,45.1-49.2c115.7,25.6,254,96.3,254,233.5C383,445.4,350.2,489.5,279.6,522.2z
		 M103.4,854c0-33.8,26.6-59.4,61.4-59.4s60.4,25.6,60.4,59.4c0,32.8-25.6,60.4-60.4,60.4S103.4,886.8,103.4,854z"/>
</g>
</svg>
