<?xml version="1.0" encoding="utf-8"?>
<!-- Generator: Adobe Illustrator 26.0.0, SVG Export Plug-In . SVG Version: 6.00 Build 0)  -->
<svg version="1.1" id="图层_1" xmlns="http://www.w3.org/2000/svg" xmlns:xlink="http://www.w3.org/1999/xlink" x="0px" y="0px"
	 viewBox="0 0 933 1024" style="enable-background:new 0 0 933 1024;" xml:space="preserve">
<style type="text/css">
	.st0{enable-background:new    ;}
</style>
<g class="st0">
	<path d="M537.6,750.6c-45.1,62.5-96.3,94.2-151.6,94.2c-69.6,0-120.8-46.1-120.8-146.4c0-154.6,119.8-325.6,252.9-325.6
		c33.8,0,60.4,13.3,84,43l50.2-37.9l14.3,10.2l-61.4,322.6c-14.3,70.7,4.1,100.4,57.3,100.4c85,0,191.5-101.4,191.5-286.7
		c0-200.7-136.2-326.7-325.6-326.7c-251.9,0-440.3,218.1-440.3,478.2c0,234.5,157.7,365.6,356.4,365.6c80.9,0,144.4-15.4,203.8-45.1
		l12.3,22.5c-66.6,34.8-143.4,54.3-226.3,54.3C209.9,1073.2,43,935.9,43,683c0-285.7,208.9-518.1,492.5-518.1
		c214,0,355.3,147.5,355.3,365.6c0,205.8-135.2,314.4-245.8,314.4C578.6,844.8,541.7,811,537.6,750.6z M587.8,452.6
		c-19.5-28.7-43-39.9-72.7-39.9c-94.2,0-179.2,141.3-179.2,267.3c0,75.8,32.8,115.7,80.9,115.7c32.8,0,67.6-14.3,119.8-71.7
		L587.8,452.6z"/>
</g>
</svg>
