<?xml version="1.0" encoding="utf-8"?>
<!-- Generator: Adobe Illustrator 26.0.0, SVG Export Plug-In . SVG Version: 6.00 Build 0)  -->
<svg version="1.1" id="图层_1" xmlns="http://www.w3.org/2000/svg" xmlns:xlink="http://www.w3.org/1999/xlink" x="0px" y="0px"
	 viewBox="0 0 1024 1024" style="enable-background:new 0 0 1024 1024;" xml:space="preserve">
<style type="text/css">
	.st0{enable-background:new    ;}
</style>
<g class="st0">
	<path d="M264.2,999.4c62.5-32.8,98.3-60.4,113.7-115.7c-57.3-29.7-75.8-54.3-75.8-82.9c0-32.8,23.6-59.4,61.4-59.4
		c21.5,0,37.9,5.1,53.2,19.5c9.2,21.5,12.3,34.8,12.3,59.4c0,105.5-58.4,169-151.6,207.9L264.2,999.4z M302.1,393.2
		c0-35.8,26.6-62.5,63.5-62.5c36.9,0,63.5,26.6,63.5,62.5c0,32.8-26.6,61.4-63.5,61.4C328.7,454.7,302.1,426,302.1,393.2z"/>
</g>
</svg>
