<?xml version="1.0" encoding="utf-8"?>
<!-- Generator: Adobe Illustrator 26.0.0, SVG Export Plug-In . SVG Version: 6.00 Build 0)  -->
<svg version="1.1" id="图层_1" xmlns="http://www.w3.org/2000/svg" xmlns:xlink="http://www.w3.org/1999/xlink" x="0px" y="0px"
	 viewBox="0 0 1024 1024" style="enable-background:new 0 0 1024 1024;" xml:space="preserve">
<style type="text/css">
	.st0{enable-background:new    ;}
</style>
<g class="st0">
	<path d="M305.2,592.9c0-51.2,24.6-82.9,102.4-144.4C486.4,389.1,510,351.2,510,288.8c0-89.1-52.2-138.2-138.2-138.2
		c-34.8,0-56.3,4.1-86,16.4C255,290.8,236.5,299,206.8,299c-18.4,0-33.8-6.1-43-25.6c12.3-93.2,93.2-155.6,224.3-155.6
		c148.5,0,208.9,74.8,208.9,173.1c0,73.7-38.9,131.1-136.2,194.6c-91.1,59.4-108.5,80.9-111.6,136.2l-3.1,70.7h-33.8
		C307.2,654.3,305.2,625.7,305.2,592.9z M276.5,860.2c0-28.7,21.5-52.2,54.3-52.2c30.7,0,54.3,23.6,54.3,52.2s-23.6,53.2-54.3,53.2
		C298,913.4,276.5,888.8,276.5,860.2z"/>
</g>
</svg>
