<?xml version="1.0" encoding="utf-8"?>
<!-- Generator: Adobe Illustrator 26.0.0, SVG Export Plug-In . SVG Version: 6.00 Build 0)  -->
<svg version="1.1" id="图层_1" xmlns="http://www.w3.org/2000/svg" xmlns:xlink="http://www.w3.org/1999/xlink" x="0px" y="0px"
	 viewBox="0 0 686 1024" style="enable-background:new 0 0 686 1024;" xml:space="preserve">
<style type="text/css">
	.st0{enable-background:new    ;}
</style>
<g class="st0">
	<path d="M54.3,155.7h302.1c167.9,0,244.7,71.7,244.7,177.2c0,79.9-53.2,150.5-186.4,176.1C574.5,525.3,641,600.1,641,698.4
		c0,106.5-79.9,202.8-289.8,202.8h-297v-30.7l105.5-9.2c1-101.4,1-203.8,1-308.2v-54.3c0-101.4,0-202.8-1-304.1l-105.5-8.2V155.7z
		 M250.9,496.6h63.5c132.1,0,198.7-59.4,198.7-162.8c0-91.1-50.2-144.4-182.3-144.4h-77.8C250.9,288.8,250.9,390.1,250.9,496.6z
		 M252.9,867.3h91.1c129,0,204.8-59.4,204.8-167.9c0-111.6-68.6-171-224.3-171h-73.7C250.9,657.4,250.9,763.9,252.9,867.3z"/>
</g>
</svg>
