<?xml version="1.0" encoding="utf-8"?>
<!-- Generator: Adobe Illustrator 26.0.0, SVG Export Plug-In . SVG Version: 6.00 Build 0)  -->
<svg version="1.1" id="图层_1" xmlns="http://www.w3.org/2000/svg" xmlns:xlink="http://www.w3.org/1999/xlink" x="0px" y="0px"
	 viewBox="0 0 707 1024" style="enable-background:new 0 0 707 1024;" xml:space="preserve">
<style type="text/css">
	.st0{enable-background:new    ;}
</style>
<g class="st0">
	<path d="M57.3,530.4c0-240.6,160.8-392.2,374.8-392.2c84,0,146.4,18.4,212,57.3l3.1,163.8h-46.1l-30.7-155.6
		c-38.9-20.5-77.8-28.7-124.9-28.7c-169,0-290.8,127-290.8,353.3c0,229.4,121.9,354.3,286.7,354.3c49.2,0,94.2-9.2,137.2-31.7
		l30.7-153.6h46.1l-2,162.8c-68.6,41-138.2,57.3-221.2,57.3C212,917.5,57.3,771.1,57.3,530.4z"/>
</g>
</svg>
