<?xml version="1.0" encoding="utf-8"?>
<!-- Generator: Adobe Illustrator 26.0.0, SVG Export Plug-In . SVG Version: 6.00 Build 0)  -->
<svg version="1.1" id="图层_1" xmlns="http://www.w3.org/2000/svg" xmlns:xlink="http://www.w3.org/1999/xlink" x="0px" y="0px"
	 viewBox="0 0 788 1024" style="enable-background:new 0 0 788 1024;" xml:space="preserve">
<style type="text/css">
	.st0{enable-background:new    ;}
</style>
<g class="st0">
	<path d="M54.3,155.7h306.2c230.4,0,369.7,135.2,369.7,372.7c0,229.4-145.4,372.7-384,372.7H54.3v-30.7l105.5-9.2
		c1-100.4,1-204.8,1-326.7v-27.6c0-107.5,0-210.9-1-312.3l-105.5-8.2V155.7z M336.9,867.3c195.6,0,297-129,297-338.9
		c0-221.2-101.4-338.9-285.7-338.9h-95.2c-1,102.4-1,206.8-1,317.4v27.6c0,123.9,0,229.4,1,332.8H336.9z"/>
</g>
</svg>
