<?xml version="1.0" encoding="utf-8"?>
<!-- Generator: Adobe Illustrator 26.0.0, SVG Export Plug-In . SVG Version: 6.00 Build 0)  -->
<svg version="1.1" id="图层_1" xmlns="http://www.w3.org/2000/svg" xmlns:xlink="http://www.w3.org/1999/xlink" x="0px" y="0px"
	 viewBox="0 0 758 1024" style="enable-background:new 0 0 758 1024;" xml:space="preserve">
<style type="text/css">
	.st0{enable-background:new    ;}
</style>
<g class="st0">
	<path d="M459.8,543.7h286.7v30.7l-74.8,8.2c-1,65.5-2,135.2-2,216.1V852c-78.8,46.1-147.5,65.5-237.6,65.5
		c-224.3,0-374.8-156.7-374.8-390.1c0-232.4,154.6-389.1,378.9-389.1c92.2,0,156.7,21.5,220.2,59.4l3.1,163.8h-47.1l-29.7-152.6
		c-42-23.6-82.9-33.8-136.2-33.8c-171,0-291.8,130-291.8,353.3c0,218.1,115.7,353.3,287.7,353.3c51.2,0,96.3-9.2,141.3-28.7v-55.3
		c0-71.7-1-141.3-3.1-213l-120.8-10.2V543.7z"/>
</g>
</svg>
