<?xml version="1.0" encoding="utf-8"?>
<!-- Generator: Adobe Illustrator 26.0.0, SVG Export Plug-In . SVG Version: 6.00 Build 0)  -->
<svg version="1.1" id="图层_1" xmlns="http://www.w3.org/2000/svg" xmlns:xlink="http://www.w3.org/1999/xlink" x="0px" y="0px"
	 viewBox="0 0 873 1024" style="enable-background:new 0 0 873 1024;" xml:space="preserve">
<style type="text/css">
	.st0{enable-background:new    ;}
</style>
<g class="st0">
	<path d="M516.1,155.7h304.1v30.7l-105.5,8.2c-2,100.4-2,202.8-2,306.2V556c0,102.4,0,204.8,2,305.2l105.5,9.2v30.7H516.1v-30.7
		l104.4-9.2c3.1-99.3,3.1-202.8,3.1-329.7H251.9c0,127,0,230.4,1,329.7l105.5,9.2v30.7H54.3v-30.7l105.5-9.2
		c1-100.4,1-201.7,1-305.2v-55.3c0-102.4,0-204.8-1-306.2l-105.5-8.2v-30.7h304.1v30.7l-105.5,8.2c-1,99.3-1,200.7-1,303.1h371.7
		c0-101.4,0-202.8-3.1-303.1l-104.4-8.2V155.7z"/>
</g>
</svg>
