<?xml version="1.0" encoding="utf-8"?>
<!-- Generator: Adobe Illustrator 26.0.0, SVG Export Plug-In . SVG Version: 6.00 Build 0)  -->
<svg version="1.1" id="图层_1" xmlns="http://www.w3.org/2000/svg" xmlns:xlink="http://www.w3.org/1999/xlink" x="0px" y="0px"
	 viewBox="0 0 414 1024" style="enable-background:new 0 0 414 1024;" xml:space="preserve">
<style type="text/css">
	.st0{enable-background:new    ;}
</style>
<g class="st0">
	<path d="M56.3,155.7h318.5v30.7l-106.5,8.2c-2,99.3-2,201.7-2,306.2v216.1c0,152.6-19.5,212-60.4,262.1
		c-38.9,48.1-86,67.6-136.2,67.6c-46.1,0-80.9-13.3-85-47.1c5.1-28.7,27.6-39.9,56.3-39.9c27.6,0,45.1,7.2,73.7,31.7l15.4,16.4
		c34.8-50.2,50.2-128,50.2-263.2c0-135.2,0-252.9-4.1-548.9l-119.8-9.2V155.7z"/>
</g>
</svg>
