<?xml version="1.0" encoding="utf-8"?>
<!-- Generator: Adobe Illustrator 26.0.0, SVG Export Plug-In . SVG Version: 6.00 Build 0)  -->
<svg version="1.1" id="图层_1" xmlns="http://www.w3.org/2000/svg" xmlns:xlink="http://www.w3.org/1999/xlink" x="0px" y="0px"
	 viewBox="0 0 749 1024" style="enable-background:new 0 0 749 1024;" xml:space="preserve">
<style type="text/css">
	.st0{enable-background:new    ;}
</style>
<g class="st0">
	<path d="M471,901.1v-30.7l94.2-8.2L366.6,504.8L248.8,646.1l1,215l105.5,9.2v30.7H54.3v-30.7l105.5-9.2c1-100.4,1-201.7,1-305.2
		v-55.3c0-102.4,0-204.8-1-306.2l-105.5-8.2v-30.7h304.1v30.7l-108.5,8.2c-1,100.4-1,202.8-1,306.2V597l326.7-399.4l-109.6-11.3
		v-30.7h254v30.7l-95.2,10.2L422.9,437.3l238.6,425l88.1,8.2v30.7H586.8H471z"/>
</g>
</svg>
