<?xml version="1.0" encoding="utf-8"?>
<!-- Generator: Adobe Illustrator 26.0.0, SVG Export Plug-In . SVG Version: 6.00 Build 0)  -->
<svg version="1.1" id="图层_1" xmlns="http://www.w3.org/2000/svg" xmlns:xlink="http://www.w3.org/1999/xlink" x="0px" y="0px"
	 viewBox="0 0 998 1024" style="enable-background:new 0 0 998 1024;" xml:space="preserve">
<style type="text/css">
	.st0{enable-background:new    ;}
</style>
<g class="st0">
	<path d="M642,901.1v-30.7l104.4-9.2c1-100.4,1-201.7,1-292.9l3.1-332.8L485.4,901.1h-33.8L179.2,235.5l5.1,269.3v354.3l108.5,11.3
		v30.7H42v-30.7l102.4-11.3l2-663.6L43,186.4v-30.7h195.6l255,625.7l249.9-625.7h200.7v30.7l-105.5,8.2c-1,100.4-1,203.8-1,306.2
		V556c0,103.4,0,204.8,1,305.2l107.5,9.2v30.7H745.5H642z"/>
</g>
</svg>
