<?xml version="1.0" encoding="utf-8"?>
<!-- Generator: Adobe Illustrator 26.0.0, SVG Export Plug-In . SVG Version: 6.00 Build 0)  -->
<svg version="1.1" id="图层_1" xmlns="http://www.w3.org/2000/svg" xmlns:xlink="http://www.w3.org/1999/xlink" x="0px" y="0px"
	 viewBox="0 0 656 1024" style="enable-background:new 0 0 656 1024;" xml:space="preserve">
<style type="text/css">
	.st0{enable-background:new    ;}
</style>
<g class="st0">
	<path d="M54.3,155.7h289.8c187.4,0,274.4,82.9,274.4,217.1c0,126-90.1,223.2-305.2,223.2h-61.4l1,264.2l116.7,10.2v30.7H54.3v-30.7
		l105.5-9.2c1-100.4,1-201.7,1-305.2v-55.3c0-102.4,0-204.8-1-306.2l-105.5-8.2V155.7z M311.3,562.2c155.6,0,219.1-77.8,219.1-190.5
		c0-118.8-60.4-182.3-193.5-182.3h-84c-1,102.4-1,205.8-1,311.3v61.4H311.3z"/>
</g>
</svg>
