<?xml version="1.0" encoding="utf-8"?>
<!-- Generator: Adobe Illustrator 26.0.0, SVG Export Plug-In . SVG Version: 6.00 Build 0)  -->
<svg version="1.1" id="图层_1" xmlns="http://www.w3.org/2000/svg" xmlns:xlink="http://www.w3.org/1999/xlink" x="0px" y="0px"
	 viewBox="0 0 785 1024" style="enable-background:new 0 0 785 1024;" xml:space="preserve">
<style type="text/css">
	.st0{enable-background:new    ;}
</style>
<g class="st0">
	<path d="M345.1,914.4c-159.7-22.5-287.7-160.8-287.7-386c0-242.7,153.6-390.1,334.8-390.1c182.3,0,334.8,143.4,334.8,390.1
		c0,226.3-132.1,367.6-297,387.1c0,107.5,57.3,173.1,147.5,173.1c34.8,0,62.5-6.1,94.2-17.4l9.2,22.5c-37.9,23.6-86,33.8-130,33.8
		C409.6,1127.4,346.1,1024,345.1,914.4z M629.8,528.4c0-192.5-80.9-353.3-237.6-353.3c-155.6,0-237.6,160.8-237.6,353.3
		c0,193.5,81.9,354.3,237.6,354.3C548.9,882.7,629.8,721.9,629.8,528.4z"/>
</g>
</svg>
