<?xml version="1.0" encoding="utf-8"?>
<!-- Generator: Adobe Illustrator 26.0.0, SVG Export Plug-In . SVG Version: 6.00 Build 0)  -->
<svg version="1.1" id="图层_1" xmlns="http://www.w3.org/2000/svg" xmlns:xlink="http://www.w3.org/1999/xlink" x="0px" y="0px"
	 viewBox="0 0 732 1024" style="enable-background:new 0 0 732 1024;" xml:space="preserve">
<style type="text/css">
	.st0{enable-background:new    ;}
</style>
<g class="st0">
	<path d="M54.3,155.7h313.3c163.8,0,257,68.6,257,192.5c0,92.2-64.5,169-193.5,190.5c78.8,15.4,107.5,55.3,129,134.1l57.3,190.5
		l99.3,7.2v30.7c-23.6,5.1-50.2,9.2-88.1,9.2c-68.6,0-96.3-19.5-107.5-67.6L470,667.7c-23.6-85-50.2-115.7-141.3-115.7h-77.8
		c0,108.5,0,209.9,2,309.2l107.5,9.2v30.7H54.3v-30.7l105.5-9.2c1-100.4,1-201.7,1-305.2v-55.3c0-102.4,0-204.8-1-306.2l-105.5-8.2
		V155.7z M250.9,519.2h105.5c114.7,0,181.2-74.8,181.2-170c0-99.3-58.4-159.7-183.3-159.7H252.9
		C250.9,289.8,250.9,393.2,250.9,519.2z"/>
</g>
</svg>
