<?xml version="1.0" encoding="utf-8"?>
<!-- Generator: Adobe Illustrator 26.0.0, SVG Export Plug-In . SVG Version: 6.00 Build 0)  -->
<svg version="1.1" id="图层_1" xmlns="http://www.w3.org/2000/svg" xmlns:xlink="http://www.w3.org/1999/xlink" x="0px" y="0px"
	 viewBox="0 0 1024 1024" style="enable-background:new 0 0 1024 1024;" xml:space="preserve">
<style type="text/css">
	.st0{enable-background:new    ;}
</style>
<g class="st0">
	<path d="M528.4,174.1c51.2,14.3,86,34.8,86,80.9c0,33.8-25.6,59.4-64.5,59.4c-45.1,0-72.7-33.8-72.7-91.1
		c0-62.5,31.7-153.6,135.2-196.6l16.4,25.6C559.1,86,532.5,138.2,528.4,174.1z M738.3,174.1c51.2,14.3,87,34.8,87,80.9
		c0,33.8-25.6,59.4-65.5,59.4c-45.1,0-71.7-33.8-71.7-91.1c0-62.5,31.7-153.6,134.1-196.6l16.4,25.6
		C770.1,86,743.4,138.2,738.3,174.1z"/>
</g>
</svg>
