<?xml version="1.0" encoding="utf-8"?>
<!-- Generator: Adobe Illustrator 26.0.0, SVG Export Plug-In . SVG Version: 6.00 Build 0)  -->
<svg version="1.1" id="图层_1" xmlns="http://www.w3.org/2000/svg" xmlns:xlink="http://www.w3.org/1999/xlink" x="0px" y="0px"
	 viewBox="0 0 1024 1024" style="enable-background:new 0 0 1024 1024;" xml:space="preserve">
<style type="text/css">
	.st0{enable-background:new    ;}
</style>
<g class="st0">
	<path d="M285.7,166.9c-51.2-13.3-87-33.8-87-80.9c0-33.8,25.6-59.4,65.5-59.4c45.1,0,71.7,33.8,71.7,92.2
		c0,61.4-31.7,152.6-134.1,195.6l-16.4-25.6C254,255,280.6,203.8,285.7,166.9z M496.7,166.9c-52.2-13.3-87-33.8-87-80.9
		c0-33.8,25.6-59.4,64.5-59.4c45.1,0,72.7,33.8,72.7,92.2c0,61.4-31.7,152.6-135.2,195.6l-16.4-25.6
		C464.9,255,491.5,203.8,496.7,166.9z"/>
</g>
</svg>
