<?xml version="1.0" encoding="utf-8"?>
<!-- Generator: Adobe Illustrator 26.0.0, SVG Export Plug-In . SVG Version: 6.00 Build 0)  -->
<svg version="1.1" id="图层_1" xmlns="http://www.w3.org/2000/svg" xmlns:xlink="http://www.w3.org/1999/xlink" x="0px" y="0px"
	 viewBox="0 0 1024 1024" style="enable-background:new 0 0 1024 1024;" xml:space="preserve">
<style type="text/css">
	.st0{enable-background:new    ;}
</style>
<g class="st0">
	<path d="M155.7,854c0-35.8,25.6-63.5,62.5-63.5c35.8,0,63.5,27.6,63.5,63.5c0,32.8-27.6,62.5-63.5,62.5
		C181.3,916.5,155.7,886.8,155.7,854z M448.5,854c0-35.8,26.6-63.5,63.5-63.5c35.8,0,63.5,27.6,63.5,63.5
		c0,32.8-27.6,62.5-63.5,62.5C475.1,916.5,448.5,886.8,448.5,854z M742.4,854c0-35.8,26.6-63.5,62.5-63.5
		c36.9,0,63.5,27.6,63.5,63.5c0,32.8-26.6,62.5-63.5,62.5C769,916.5,742.4,886.8,742.4,854z"/>
</g>
</svg>
