<?xml version="1.0" encoding="utf-8"?>
<!-- Generator: Adobe Illustrator 26.0.0, SVG Export Plug-In . SVG Version: 6.00 Build 0)  -->
<svg version="1.1" id="图层_1" xmlns="http://www.w3.org/2000/svg" xmlns:xlink="http://www.w3.org/1999/xlink" x="0px" y="0px"
	 viewBox="0 0 580 1024" style="enable-background:new 0 0 580 1024;" xml:space="preserve">
<style type="text/css">
	.st0{enable-background:new    ;}
</style>
<g class="st0">
	<path d="M54.3,858.1l6.1-152.6h42L130,848.9c43,24.6,80.9,31.7,134.1,31.7c111.6,0,185.3-50.2,185.3-148.5
		c0-74.8-35.8-114.7-147.5-160.8L258,554C136.2,502.8,72.7,438.3,72.7,333.8c0-129,106.5-195.6,238.6-195.6
		c77.8,0,134.1,20.5,184.3,56.3L491.5,340h-44l-27.6-138.2c-31.7-18.4-62.5-25.6-103.4-25.6c-96.3,0-164.9,45.1-164.9,135.2
		c0,76.8,48.1,119.8,129,153.6l46.1,18.4c155.6,64.5,203.8,121.9,203.8,226.3c0,128-103.4,207.9-260.1,207.9
		C185.3,917.5,104.4,890.9,54.3,858.1z"/>
</g>
</svg>
