<?xml version="1.0" encoding="utf-8"?>
<!-- Generator: Adobe Illustrator 26.0.0, SVG Export Plug-In . SVG Version: 6.00 Build 0)  -->
<svg version="1.1" id="图层_1" xmlns="http://www.w3.org/2000/svg" xmlns:xlink="http://www.w3.org/1999/xlink" x="0px" y="0px"
	 viewBox="0 0 1024 1024" style="enable-background:new 0 0 1024 1024;" xml:space="preserve">
<style type="text/css">
	.st0{enable-background:new    ;}
</style>
<g class="st0">
	<path d="M92.2,484.4v-23.6l48.1-5.1V181.3H65.5l-9.2,68.6H28.7l2-94.2h279.6l3.1,94.2h-28.7l-9.2-68.6h-73.7v274.4l47.1,5.1v23.6
		H140.3H92.2z M614.4,484.4v-23.6l42-4.1V227.3l-109.6,257h-15.4l-111.6-258v228.4l45.1,6.1v23.6H348.2v-23.6l48.1-6.1V182.3
		l-43-3.1v-23.6h98.3L556,394.2l106.5-238.6h96.3v23.6l-43,4.1v273.4l43,4.1v23.6H656.4H614.4z"/>
</g>
</svg>
