<?xml version="1.0" encoding="utf-8"?>
<!-- Generator: Adobe Illustrator 26.0.0, SVG Export Plug-In . SVG Version: 6.00 Build 0)  -->
<svg version="1.1" id="图层_1" xmlns="http://www.w3.org/2000/svg" xmlns:xlink="http://www.w3.org/1999/xlink" x="0px" y="0px"
	 viewBox="0 0 816 1024" style="enable-background:new 0 0 816 1024;" xml:space="preserve">
<style type="text/css">
	.st0{enable-background:new    ;}
</style>
<g class="st0">
	<path d="M510,155.7h264.2v30.7l-99.3,10.2l-2,411.6c-1,208.9-92.2,309.2-262.1,309.2c-158.7,0-265.2-84-265.2-299V500.7
		c0-102.4,0-204.8-1-306.2l-98.3-8.2v-30.7h303.1v30.7l-112.6,9.2c-1,100.4-1,200.7-1,305.2v102.4c0,190.5,73.7,259.1,194.6,259.1
		c139.3,0,205.8-77.8,204.8-274.4l-1-391.2L510,186.4V155.7z"/>
</g>
</svg>
