<?xml version="1.0" encoding="utf-8"?>
<!-- Generator: Adobe Illustrator 26.0.0, SVG Export Plug-In . SVG Version: 6.00 Build 0)  -->
<svg version="1.1" id="图层_1" xmlns="http://www.w3.org/2000/svg" xmlns:xlink="http://www.w3.org/1999/xlink" x="0px" y="0px"
	 viewBox="0 0 570 1024" style="enable-background:new 0 0 570 1024;" xml:space="preserve">
<style type="text/css">
	.st0{enable-background:new    ;}
</style>
<g class="st0">
	<path d="M374.8,817.2c-60.4,65.5-106.5,99.3-180.2,99.3c-80.9,0-141.3-48.1-141.3-133.1c0-79.9,48.1-132.1,183.3-171
		c43-13.3,91.1-26.6,136.2-36.9v-42c0-113.7-35.8-144.4-116.7-144.4c-26.6,0-52.2,5.1-79.9,15.4l-15.4,73.7
		c-6.1,36.9-23.6,50.2-49.2,50.2c-23.6,0-38.9-13.3-45.1-36.9c20.5-84,96.3-134.1,212-134.1c118.8,0,176.1,53.2,176.1,180.2v252.9
		c0,64.5,15.4,81.9,43,81.9c17.4,0,29.7-6.1,46.1-24.6l16.4,15.4c-21.5,35.8-52.2,52.2-92.2,52.2C411.6,915.5,383,878.6,374.8,817.2
		z M372.7,602.1c-42,11.3-82.9,22.5-117.8,35.8c-86,31.7-119.8,75.8-119.8,132.1c0,63.5,37.9,96.3,95.2,96.3
		c41,0,77.8-19.5,142.3-80.9V602.1z"/>
</g>
</svg>
