<?xml version="1.0" encoding="utf-8"?>
<!-- Generator: Adobe Illustrator 26.0.0, SVG Export Plug-In . SVG Version: 6.00 Build 0)  -->
<svg version="1.1" id="图层_1" xmlns="http://www.w3.org/2000/svg" xmlns:xlink="http://www.w3.org/1999/xlink" x="0px" y="0px"
	 viewBox="0 0 653 1024" style="enable-background:new 0 0 653 1024;" xml:space="preserve">
<style type="text/css">
	.st0{enable-background:new    ;}
</style>
<g class="st0">
	<path d="M213,833.5l-10.2,76.8L43,901.1v-28.7l86-7.2c1-57.3,2-142.3,2-198.7V140.3L41,135.2v-27.6l159.7-30.7l15.4,9.2L213,244.7
		v196.6c52.2-59.4,115.7-84,177.2-84c123.9,0,214,106.5,214,274.4c0,166.9-91.1,284.7-225.3,284.7
		C321.5,916.5,262.1,892.9,213,833.5z M215,803.8c46.1,45.1,89.1,63.5,138.2,63.5c85,0,160.8-62.5,160.8-234.5
		c0-153.6-66.6-228.4-158.7-228.4c-43,0-86,14.3-140.3,66.6V803.8z"/>
</g>
</svg>
