<?xml version="1.0" encoding="utf-8"?>
<!-- Generator: Adobe Illustrator 26.0.0, SVG Export Plug-In . SVG Version: 6.00 Build 0)  -->
<svg version="1.1" id="图层_1" xmlns="http://www.w3.org/2000/svg" xmlns:xlink="http://www.w3.org/1999/xlink" x="0px" y="0px"
	 viewBox="0 0 550 1024" style="enable-background:new 0 0 550 1024;" xml:space="preserve">
<style type="text/css">
	.st0{enable-background:new    ;}
</style>
<g class="st0">
	<path d="M49.2,644.1c0-183.3,127-286.7,268.3-286.7c91.1,0,166.9,53.2,189.4,135.2c-6.1,24.6-20.5,35.8-43,35.8
		c-28.7,0-45.1-14.3-51.2-50.2l-21.5-74.8c-22.5-9.2-45.1-13.3-68.6-13.3c-104.4,0-184.3,93.2-184.3,242.7
		c0,147.5,79.9,232.4,194.6,232.4c61.4,0,113.7-23.6,159.7-73.7l16.4,13.3c-46.1,70.7-107.5,111.6-204.8,111.6
		C153.6,916.5,49.2,815.1,49.2,644.1z"/>
</g>
</svg>
